<?xml version="1.0" ?><svg height="512" id="svg2" version="1.1" width="512" xmlns="http://www.w3.org/2000/svg" xmlns:cc="http://creativecommons.org/ns#" xmlns:dc="http://purl.org/dc/elements/1.1/" xmlns:inkscape="http://www.inkscape.org/namespaces/inkscape" xmlns:rdf="http://www.w3.org/1999/02/22-rdf-syntax-ns#" xmlns:sodipodi="http://sodipodi.sourceforge.net/DTD/sodipodi-0.dtd" xmlns:svg="http://www.w3.org/2000/svg"><defs id="defs4"/><g id="layer1" transform="translate(0,-540.36218)"><g id="g4305"><g id="g4345" transform="translate(28,-40.00001)"><path d="m 40,40 0,48 336,0 0,-48 z m 0,96 0,48 155.6875,0 48,-48 z m 252,0 0,48 84,0 0,-48 z m -252,192 0,48 203.71875,0 -48,-48 z m 252,0 0,48 84,0 0,-48 z m -252,96 0,48 336,0 0,-48 z" id="rect3017" style="color:#000000;fill:#222222;fill-opacity:1;fill-rule:nonzero;stroke:none;stroke-width:80;marker:none;visibility:visible;display:inline;overflow:visible;enable-background:accumulate" transform="translate(-28,580.36219)"/><path d="m 40,232 0,48 107.71875,0 -9.875,-9.875 c -3.70103,-3.70256 -5.85553,-8.90549 -5.85553,-14.14063 0,-5.23513 2.1545,-10.43806 5.85553,-14.14062 L 147.6875,232 z" id="rect3017-8-2" style="color:#000000;fill:#cccccc;fill-opacity:1;fill-rule:nonzero;stroke:none;stroke-width:80;marker:none;visibility:visible;display:inline;overflow:visible;enable-background:accumulate" transform="translate(-28,580.36219)"/><path d="m 124,836.36219 120,120 0,-80 200,0 0,-80 -200,0 0,-80 z" id="path4125-1" style="font-size:550px;font-style:normal;font-variant:normal;font-weight:normal;font-stretch:normal;text-align:start;line-height:125%;letter-spacing:0px;word-spacing:0px;writing-mode:lr-tb;text-anchor:start;fill:#2980b9;fill-opacity:1;stroke:none;font-family:Ubuntu;-inkscape-font-specification:Ubuntu"/></g></g></g></svg>