<?xml version="1.0" ?><svg height="512" id="svg2" version="1.1" width="512" xmlns="http://www.w3.org/2000/svg" xmlns:cc="http://creativecommons.org/ns#" xmlns:dc="http://purl.org/dc/elements/1.1/" xmlns:inkscape="http://www.inkscape.org/namespaces/inkscape" xmlns:rdf="http://www.w3.org/1999/02/22-rdf-syntax-ns#" xmlns:sodipodi="http://sodipodi.sourceforge.net/DTD/sodipodi-0.dtd" xmlns:svg="http://www.w3.org/2000/svg"><defs id="defs4"/><g id="layer1" transform="translate(0,-540.36218)"><g id="g4305"><g id="g4345" transform="translate(28,-40.00001)"><g id="text2994" style="font-size:550px;font-style:normal;font-variant:normal;font-weight:normal;font-stretch:normal;text-align:start;line-height:125%;letter-spacing:0px;word-spacing:0px;writing-mode:lr-tb;text-anchor:start;fill:#222222;fill-opacity:1;stroke:none;font-family:Ubuntu;-inkscape-font-specification:Ubuntu"><g id="layer1-5-1" style="font-size:550px;font-style:normal;font-variant:normal;font-weight:normal;font-stretch:normal;text-align:start;line-height:125%;letter-spacing:0px;word-spacing:0px;writing-mode:lr-tb;text-anchor:start;fill:#2980b9;fill-opacity:1;stroke:none;font-family:Ubuntu;-inkscape-font-specification:Ubuntu" transform="matrix(0.79999916,0,0,0.8,-451.20759,471.38774)"/><g id="layer1-5-2" style="font-size:550px;font-style:normal;font-variant:normal;font-weight:normal;font-stretch:normal;text-align:start;line-height:125%;letter-spacing:0px;word-spacing:0px;writing-mode:lr-tb;text-anchor:start;fill:#2980b9;fill-opacity:1;stroke:none;font-family:Ubuntu;-inkscape-font-specification:Ubuntu" transform="matrix(0.8,0,0,0.8,-92.410013,475.8263)"/><g id="g4674" transform="translate(65.893999,-81.000005)"><path d="m 231.74983,792.13717 a 16.001583,16.0016 0 0 0 -2.22499,0.225 l -141.524854,0 A 16.001583,16.0016 0 0 0 72,808.36217 l 0,328.00003 a 16.001583,16.0016 0 0 0 15.999986,16 l 247.999744,0 a 16.001583,16.0016 0 0 0 15.99998,-16 l 0,-221.40003 a 16.001583,16.0016 0 0 0 -6.025,-15.275 l -101.37489,-101.375 a 16.001583,16.0016 0 0 0 -12.84999,-6.175 z m -127.74986,32.225 111.99988,0 0,85.425 a 16.001583,16.0016 0 0 0 4.6,14.025 16.001583,16.0016 0 0 0 0.125,0.125 16.001583,16.0016 0 0 0 0.225,0.2 16.001583,16.0016 0 0 0 13.67498,4.225 l 85.37491,0 0,192.00003 -215.99977,0 0,-296.00003 z m 143.99985,22.625 49.37495,49.375 -49.37495,0 0,-49.375 z" id="path3833-1" style="font-size:medium;font-style:normal;font-variant:normal;font-weight:normal;font-stretch:normal;text-indent:0;text-align:start;text-decoration:none;line-height:normal;letter-spacing:normal;word-spacing:normal;text-transform:none;direction:ltr;block-progression:tb;writing-mode:lr-tb;text-anchor:start;baseline-shift:baseline;color:#000000;fill:#2980b9;fill-opacity:1;fill-rule:nonzero;stroke:none;stroke-width:40;marker:none;visibility:visible;display:inline;overflow:visible;enable-background:accumulate;font-family:Sans;-inkscape-font-specification:Sans"/><path d="m 70,102 c -6.968153,0.0141 -13.796832,3.96558 -17.28125,10 L 20,112 c -5.235845,5.2e-4 -10.4392491,2.15615 -14.1415505,5.85845 C 2.1561481,121.56075 5.2298253e-4,126.76416 0,132 l 0,360 c 5.2298253e-4,5.23584 2.1561481,10.43925 5.8584495,14.14155 C 9.5607509,509.84385 14.764155,511.99948 20,512 l 60,0 0,-40 -40,0 0,-320 10,0 0,10 c 5.24e-4,5.23584 2.156149,10.43925 5.85845,14.14155 C 59.560751,179.84385 64.764155,181.99948 70,182 l 180,0 c 5.23584,-5.2e-4 10.43925,-2.15615 14.14155,-5.85845 3.7023,-3.7023 5.85793,-8.90571 5.85845,-14.14155 l 0,-10 10,0 0,45.96875 c 2.41224,1.66778 4.64117,3.64203 6.65625,5.90625 l 0.0937,-0.0937 33.25,33.25 L 320,132 c -5.2e-4,-5.23584 -2.15615,-10.43925 -5.85845,-14.14155 C 310.43925,114.15615 305.23584,112.00052 300,112 l -32.71875,0 C 263.79683,105.96558 256.96815,102.01409 250,102 z" id="rect4118" style="font-size:medium;font-style:normal;font-variant:normal;font-weight:normal;font-stretch:normal;text-indent:0;text-align:start;text-decoration:none;line-height:125%;letter-spacing:0;word-spacing:0;text-transform:none;direction:ltr;block-progression:tb;writing-mode:lr-tb;text-anchor:start;baseline-shift:baseline;color:#000000;fill:#222222;fill-opacity:1;stroke:none;stroke-width:39.99999619;marker:none;visibility:visible;display:inline;overflow:visible;enable-background:accumulate;font-family:Ubuntu;-inkscape-font-specification:Ubuntu" transform="translate(-28,580.36219)"/></g><g id="layer1-5-1-8" style="font-size:550px;font-style:normal;font-variant:normal;font-weight:normal;font-stretch:normal;text-align:start;line-height:125%;letter-spacing:0px;word-spacing:0px;writing-mode:lr-tb;text-anchor:start;fill:#222222;fill-opacity:1;stroke:#000000;stroke-width:50.0000267;stroke-linejoin:round;stroke-miterlimit:4;stroke-opacity:1;stroke-dasharray:none;font-family:Ubuntu;-inkscape-font-specification:Ubuntu" transform="matrix(0.79999916,0,0,0.8,-451.20759,471.38774)"/></g></g></g></g></svg>